HIERARCHY
ROOT Hips
{
    OFFSET 0.000000 97.120003 0.000000
    CHANNELS 6 Xposition Yposition Zposition Yrotation Xrotation Zrotation
    JOINT RightUpLeg
    {
        OFFSET -11.000000 -0.000000 0.000000
        CHANNELS 3 Yrotation Xrotation Zrotation
        JOINT RightLeg
        {
            OFFSET 0.000000 -45.062000 0.000000
            CHANNELS 3 Yrotation Xrotation Zrotation
            JOINT RightFoot
            {
                OFFSET 0.000000 -42.057999 0.000000
                CHANNELS 3 Yrotation Xrotation Zrotation
                End Site
                {
                    OFFSET 0.000000 -10.000000 15.120000
                }
            }
        }
    }
    JOINT LeftUpLeg
    {
        OFFSET 11.000000 -0.000000 0.000000
        CHANNELS 3 Yrotation Xrotation Zrotation
        JOINT LeftLeg
        {
            OFFSET 0.000000 -45.062000 0.000000
            CHANNELS 3 Yrotation Xrotation Zrotation
            JOINT LeftFoot
            {
                OFFSET 0.000000 -42.057999 0.000000
                CHANNELS 3 Yrotation Xrotation Zrotation
                End Site
                {
                    OFFSET 0.000000 -10.000000 15.120000
                }
            }
        }
    }
    JOINT Spine
    {
        OFFSET 0.000000 8.120000 0.000000
        CHANNELS 3 Yrotation Xrotation Zrotation
        JOINT Spine1
        {
            OFFSET 0.000000 17.980000 0.000000
            CHANNELS 3 Yrotation Xrotation Zrotation
            JOINT Spine2
            {
                OFFSET 0.000000 12.760000 0.000000
                CHANNELS 3 Yrotation Xrotation Zrotation
                JOINT Neck
                {
                    OFFSET 0.000000 19.139999 0.000000
                    CHANNELS 3 Yrotation Xrotation Zrotation
                    JOINT Neck1
                    {
                        OFFSET 0.000000 4.250000 0.000000
                        CHANNELS 3 Yrotation Xrotation Zrotation
                        JOINT Head
                        {
                            OFFSET 0.000000 4.250000 0.000000
                            CHANNELS 3 Yrotation Xrotation Zrotation
                            End Site
                            {
                                OFFSET 0.000000 19.120001 0.000000
                            }
                        }
                    }
                }
                JOINT RightShoulder
                {
                    OFFSET -2.900000 13.340000 0.000000
                    CHANNELS 3 Yrotation Xrotation Zrotation
                    JOINT RightArm
                    {
                        OFFSET -16.100000 0.000000 0.000000
                        CHANNELS 3 Yrotation Xrotation Zrotation
                        JOINT RightForeArm
                        {
                            OFFSET -28.000000 0.000000 0.000000
                            CHANNELS 3 Yrotation Xrotation Zrotation
                            JOINT RightHand
                            {
                                OFFSET -26.000000 0.000000 0.000000
                                CHANNELS 3 Yrotation Xrotation Zrotation
                                JOINT RightHandThumb1
                                {
                                    OFFSET -1.937000 -0.484000 2.518000
                                    CHANNELS 3 Yrotation Xrotation Zrotation
                                    JOINT RightHandThumb2
                                    {
                                        OFFSET -3.872000 0.000000 0.000000
                                        CHANNELS 3 Yrotation Xrotation Zrotation
                                        JOINT RightHandThumb3
                                        {
                                            OFFSET -2.690000 0.000000 0.000000
                                            CHANNELS 3 Yrotation Xrotation Zrotation
                                            End Site
                                            {
                                                OFFSET -2.537000 0.000000 0.000000
                                            }
                                        }
                                    }
                                }
                                JOINT RightInHandIndex
                                {
                                    OFFSET -3.389000 0.535000 2.080000
                                    CHANNELS 3 Yrotation Xrotation Zrotation
                                    JOINT RightHandIndex1
                                    {
                                        OFFSET -5.485000 -0.096000 1.051000
                                        CHANNELS 3 Yrotation Xrotation Zrotation
                                        JOINT RightHandIndex2
                                        {
                                            OFFSET -3.806000 0.000000 0.000000
                                            CHANNELS 3 Yrotation Xrotation Zrotation
                                            JOINT RightHandIndex3
                                            {
                                                OFFSET -2.158000 0.000000 0.000000
                                                CHANNELS 3 Yrotation Xrotation Zrotation
                                                End Site
                                                {
                                                    OFFSET -1.898000 0.000000 0.000000
                                                }
                                            }
                                        }
                                    }
                                }
                                JOINT RightInHandMiddle
                                {
                                    OFFSET -3.556000 0.544000 0.796000
                                    CHANNELS 3 Yrotation Xrotation Zrotation
                                    JOINT RightHandMiddle1
                                    {
                                        OFFSET -5.441000 -0.088000 0.330000
                                        CHANNELS 3 Yrotation Xrotation Zrotation
                                        JOINT RightHandMiddle2
                                        {
                                            OFFSET -4.153000 0.000000 0.000000
                                            CHANNELS 3 Yrotation Xrotation Zrotation
                                            JOINT RightHandMiddle3
                                            {
                                                OFFSET -2.603000 0.000000 0.000000
                                                CHANNELS 3 Yrotation Xrotation Zrotation
                                                End Site
                                                {
                                                    OFFSET -2.076000 0.000000 0.000000
                                                }
                                            }
                                        }
                                    }
                                }
                                JOINT RightInHandRing
                                {
                                    OFFSET -3.539000 0.566000 -0.136000
                                    CHANNELS 3 Yrotation Xrotation Zrotation
                                    JOINT RightHandRing1
                                    {
                                        OFFSET -4.873000 -0.023000 -0.504000
                                        CHANNELS 3 Yrotation Xrotation Zrotation
                                        JOINT RightHandRing2
                                        {
                                            OFFSET -3.619000 0.000000 0.000000
                                            CHANNELS 3 Yrotation Xrotation Zrotation
                                            JOINT RightHandRing3
                                            {
                                                OFFSET -2.511000 0.000000 0.000000
                                                CHANNELS 3 Yrotation Xrotation Zrotation
                                                End Site
                                                {
                                                    OFFSET -1.952000 0.000000 0.000000
                                                }
                                            }
                                        }
                                    }
                                }
                                JOINT RightInHandPinky
                                {
                                    OFFSET -3.324000 0.494000 -1.264000
                                    CHANNELS 3 Yrotation Xrotation Zrotation
                                    JOINT RightHandPinky1
                                    {
                                        OFFSET -4.354000 -0.023000 -1.147000
                                        CHANNELS 3 Yrotation Xrotation Zrotation
                                        JOINT RightHandPinky2
                                        {
                                            OFFSET -2.898000 0.000000 0.000000
                                            CHANNELS 3 Yrotation Xrotation Zrotation
                                            JOINT RightHandPinky3
                                            {
                                                OFFSET -1.831000 0.000000 0.000000
                                                CHANNELS 3 Yrotation Xrotation Zrotation
                                                End Site
                                                {
                                                    OFFSET -1.730000 0.000000 0.000000
                                                }
                                            }
                                        }
                                    }
                                }
                            }
                        }
                    }
                }
                JOINT LeftShoulder
                {
                    OFFSET 2.900000 13.340000 0.000000
                    CHANNELS 3 Yrotation Xrotation Zrotation
                    JOINT LeftArm
                    {
                        OFFSET 16.100000 0.000000 0.000000
                        CHANNELS 3 Yrotation Xrotation Zrotation
                        JOINT LeftForeArm
                        {
                            OFFSET 28.000000 0.000000 0.000000
                            CHANNELS 3 Yrotation Xrotation Zrotation
                            JOINT LeftHand
                            {
                                OFFSET 26.000000 0.000000 0.000000
                                CHANNELS 3 Yrotation Xrotation Zrotation
                                JOINT LeftHandThumb1
                                {
                                    OFFSET 1.937000 -0.484000 2.518000
                                    CHANNELS 3 Yrotation Xrotation Zrotation
                                    JOINT LeftHandThumb2
                                    {
                                        OFFSET 3.872000 0.000000 0.000000
                                        CHANNELS 3 Yrotation Xrotation Zrotation
                                        JOINT LeftHandThumb3
                                        {
                                            OFFSET 2.690000 0.000000 0.000000
                                            CHANNELS 3 Yrotation Xrotation Zrotation
                                            End Site
                                            {
                                                OFFSET 2.537000 0.000000 0.000000
                                            }
                                        }
                                    }
                                }
                                JOINT LeftInHandIndex
                                {
                                    OFFSET 3.389000 0.535000 2.080000
                                    CHANNELS 3 Yrotation Xrotation Zrotation
                                    JOINT LeftHandIndex1
                                    {
                                        OFFSET 5.485000 -0.096000 1.051000
                                        CHANNELS 3 Yrotation Xrotation Zrotation
                                        JOINT LeftHandIndex2
                                        {
                                            OFFSET 3.806000 0.000000 0.000000
                                            CHANNELS 3 Yrotation Xrotation Zrotation
                                            JOINT LeftHandIndex3
                                            {
                                                OFFSET 2.158000 0.000000 0.000000
                                                CHANNELS 3 Yrotation Xrotation Zrotation
                                                End Site
                                                {
                                                    OFFSET 1.898000 0.000000 0.000000
                                                }
                                            }
                                        }
                                    }
                                }
                                JOINT LeftInHandMiddle
                                {
                                    OFFSET 3.556000 0.544000 0.796000
                                    CHANNELS 3 Yrotation Xrotation Zrotation
                                    JOINT LeftHandMiddle1
                                    {
                                        OFFSET 5.441000 -0.088000 0.330000
                                        CHANNELS 3 Yrotation Xrotation Zrotation
                                        JOINT LeftHandMiddle2
                                        {
                                            OFFSET 4.153000 0.000000 0.000000
                                            CHANNELS 3 Yrotation Xrotation Zrotation
                                            JOINT LeftHandMiddle3
                                            {
                                                OFFSET 2.603000 0.000000 0.000000
                                                CHANNELS 3 Yrotation Xrotation Zrotation
                                                End Site
                                                {
                                                    OFFSET 2.076000 0.000000 0.000000
                                                }
                                            }
                                        }
                                    }
                                }
                                JOINT LeftInHandRing
                                {
                                    OFFSET 3.539000 0.566000 -0.136000
                                    CHANNELS 3 Yrotation Xrotation Zrotation
                                    JOINT LeftHandRing1
                                    {
                                        OFFSET 4.873000 -0.023000 -0.504000
                                        CHANNELS 3 Yrotation Xrotation Zrotation
                                        JOINT LeftHandRing2
                                        {
                                            OFFSET 3.619000 0.000000 0.000000
                                            CHANNELS 3 Yrotation Xrotation Zrotation
                                            JOINT LeftHandRing3
                                            {
                                                OFFSET 2.511000 0.000000 0.000000
                                                CHANNELS 3 Yrotation Xrotation Zrotation
                                                End Site
                                                {
                                                    OFFSET 1.952000 0.000000 0.000000
                                                }
                                            }
                                        }
                                    }
                                }
                                JOINT LeftInHandPinky
                                {
                                    OFFSET 3.324000 0.494000 -1.264000
                                    CHANNELS 3 Yrotation Xrotation Zrotation
                                    JOINT LeftHandPinky1
                                    {
                                        OFFSET 4.354000 -0.023000 -1.147000
                                        CHANNELS 3 Yrotation Xrotation Zrotation
                                        JOINT LeftHandPinky2
                                        {
                                            OFFSET 2.898000 0.000000 0.000000
                                            CHANNELS 3 Yrotation Xrotation Zrotation
                                            JOINT LeftHandPinky3
                                            {
                                                OFFSET 1.831000 0.000000 0.000000
                                                CHANNELS 3 Yrotation Xrotation Zrotation
                                                End Site
                                                {
                                                    OFFSET 1.730000 0.000000 0.000000
                                                }
                                            }
                                        }
                                    }
                                }
                            }
                        }
                    }
                }
            }
        }
    }
}
MOTION
Frames: 4
Frame Time: 0.011111
-16.721512 165.337234 104.601082 1.149608 67.628357 -2.370684 154.008972 -43.936058 -166.128448 10.684669 112.267654 43.152245 169.034973 -137.402267 -179.727112 0.326183 -138.708374 30.189112 49.720184 110.359848 19.671618 174.973083 -143.348083 -152.329422 178.447800 163.752136 179.670746 178.630737 164.070847 179.971100 173.384201 168.558624 178.289474 179.997620 -172.494553 -174.040497 0.000086 -8.743539 6.171264 167.761719 -174.929855 -174.957550 34.916725 -10.610698 -19.942064 50.013687 -59.980686 40.816429 168.316528 159.140488 163.436340 6.112001 12.871160 -100.758125 63.194004 47.642544 9.385194 0.000027 0.000004 -0.627844 0.000021 -0.000007 -0.418145 0.000000 -0.000000 0.000000 15.000031 -0.000023 2.467480 0.000037 -0.000019 2.018852 0.000017 -0.000010 1.413192 0.000000 -0.000000 0.000000 0.000019 -0.000033 3.961395 0.000006 -0.000034 3.961393 0.000010 -0.000023 2.638288 0.000000 -0.000000 0.000000 170.000000 -179.999985 -179.482834 180.000000 -179.999985 -179.482834 179.999985 -179.999985 -179.655579 0.000000 -0.000000 0.000000 159.999924 -179.999908 178.166595 0.000000 -0.000000 -0.000000 0.000000 -0.000000 -0.000000 165.214310 -175.479630 -163.208160 143.869720 -172.094818 145.199371 8.560179 0.731538 3.978783 157.909943 -144.938889 -102.173332 158.352554 144.498779 -144.520691 179.995285 -179.986069 -178.257385 179.997070 -179.990662 -178.839417 0.000003 -0.000000 0.000000 165.000015 -179.999985 -160.000000 0.000000 -0.000000 0.000000 0.000000 -0.000000 0.000000 0.000003 -0.000000 0.000000 0.000007 0.000002 20.000006 0.000000 -0.000000 0.000000 0.000000 -0.000000 0.000000 0.000003 -0.000000 0.000000 9.998941 -0.000340 15.625147 0.000000 -0.000000 0.000000 0.000000 -0.000000 0.000000 0.000003 -0.000000 0.000000 19.994610 -0.001510 -11.979171 179.991623 -179.999527 162.031265 179.994598 179.998550 168.032806
-16.626953 165.532532 104.391518 1.248009 67.607689 -1.922037 154.160904 -44.047852 -166.290176 11.153207 111.989479 43.280350 169.292816 -137.546173 -179.820831 0.172613 -138.571457 29.774904 48.096622 109.555695 18.018440 174.882004 -143.355484 -152.431351 178.475052 163.821152 179.659027 178.669724 164.140671 179.941879 173.589508 168.607437 178.306274 179.997314 -172.508255 -174.152893 0.000087 -8.726084 6.054721 167.627411 -174.922012 -175.016510 34.753517 -10.525671 -19.712784 50.448608 -60.113853 40.410603 167.631363 159.144897 163.305466 6.172470 12.878722 -100.742424 63.263802 47.541512 9.309998 179.999924 179.999985 179.315887 179.999954 179.999985 179.544388 180.000000 -180.000000 180.000000 15.000017 0.000145 2.425173 0.000019 0.000121 1.984233 180.000000 179.999924 -178.611038 180.000000 -180.000000 180.000000 179.999969 179.999771 -176.086990 179.999924 179.999786 -176.086990 179.999954 179.999847 -177.393936 180.000000 -180.000000 180.000000 169.999908 179.999817 -179.496780 179.999939 179.999817 -179.496780 179.999954 179.999878 -179.664856 180.000000 -180.000000 180.000000 159.999725 179.999573 177.964096 180.000000 -180.000000 180.000000 180.000000 -180.000000 180.000000 165.094574 -175.413635 -163.367599 143.472717 -172.664413 145.333191 8.521819 0.706141 3.870930 158.848297 -145.106842 -103.971634 157.719208 142.959579 -147.356857 179.998322 -179.996063 -179.238510 179.998917 -179.997375 -179.492844 180.000000 179.999985 180.000000 164.999985 -180.000000 -160.000000 0.000003 0.000000 -0.000002 0.000003 0.000000 -0.000002 180.000000 179.999985 180.000000 180.000000 180.000000 -160.000015 0.000000 -0.000003 0.000000 0.000000 -0.000003 0.000000 180.000000 179.999985 180.000000 9.997548 -0.000824 15.614779 0.000000 -0.000000 0.000000 0.000000 -0.000000 0.000000 180.000000 179.999985 180.000000 19.995007 -0.001495 -12.421265 179.992218 -179.999466 161.368103 179.994995 179.998657 167.591156
-16.685690 165.739777 104.281082 1.301029 67.578758 -1.506528 154.056351 -43.895401 -165.615387 12.813886 112.037964 44.961201 169.752350 -137.687439 179.956345 179.525391 -41.547466 -149.335876 48.849621 109.464027 19.161980 175.004883 -143.324326 -152.493301 178.515778 163.886215 179.627640 178.717590 164.206390 179.909546 173.839142 168.652451 178.329025 179.996979 -172.516693 -174.269394 0.000082 -8.714520 5.933913 167.453445 -174.912567 -175.073242 34.579758 -10.427713 -19.487656 51.113850 -59.684494 39.661488 167.258530 159.649460 163.400253 6.055211 13.410977 -100.702126 62.588650 47.527100 8.841050 0.000232 -0.000043 -0.525496 0.000154 -0.000023 -0.349983 180.000000 -180.000000 180.000000 15.000114 -0.000475 2.359784 0.000120 -0.000383 1.930731 0.000099 -0.000265 1.351511 180.000000 -180.000000 180.000000 0.000021 -0.000492 3.750918 0.000052 -0.000490 3.750919 0.000065 -0.000323 2.498112 180.000000 -180.000000 180.000000 170.000000 -179.999680 -179.644226 179.999985 -179.999680 -179.644226 179.999985 -179.999771 -179.763046 180.000000 -180.000000 180.000000 159.999817 -179.999207 177.626450 0.000003 -0.000000 0.000000 0.000003 -0.000000 0.000000 164.951141 -175.340988 -163.514206 143.078796 -173.265457 145.524399 8.456830 0.766814 3.771468 159.796860 -145.228882 -105.870262 158.318970 142.502899 -147.872864 179.997986 -179.995575 -179.627823 179.998657 -179.997055 -179.752121 0.000000 -0.000000 0.000002 165.000000 180.000000 -160.000000 0.000000 -0.000000 0.000000 0.000000 -0.000000 0.000000 0.000000 -0.000000 0.000002 180.000000 -179.999985 -160.000000 0.000000 -0.000000 0.000000 0.000000 -0.000000 0.000000 0.000000 -0.000000 0.000002 9.995945 -0.001535 15.466026 0.000003 -0.000003 -0.000000 0.000003 -0.000003 -0.000000 0.000000 -0.000000 0.000002 19.995131 -0.001676 -12.866126 179.992310 -179.999237 160.700821 179.995010 179.998734 167.146744
-16.541700 165.990860 104.029274 1.347899 67.544403 -1.126657 154.400467 -44.163261 -166.023193 13.309757 111.652626 45.017040 169.877151 -137.838776 179.935562 179.458771 -41.731850 -149.882843 47.296177 108.565598 17.474756 174.948318 -143.381042 -152.526688 178.562531 163.947128 179.612030 178.773987 164.268677 179.874954 174.130615 168.693741 178.358231 179.996597 -172.521927 -174.388123 0.000074 -8.706562 5.810781 167.252518 -174.902374 -175.128174 34.396152 -10.321510 -19.264980 51.692024 -59.559544 38.991528 166.667068 159.954224 163.412277 6.237043 13.147924 -100.555008 62.855251 47.522186 8.775302 0.000082 0.000011 -0.711362 0.000065 -0.000007 -0.473767 180.000000 -180.000000 -180.000000 15.000094 -0.000050 2.150124 0.000081 -0.000040 1.759194 0.000044 -0.000028 1.231435 180.000000 -180.000000 -180.000000 179.999969 -179.999954 -176.470154 179.999939 -179.999954 -176.470154 179.999969 -179.999969 -177.649124 180.000000 -180.000000 -180.000000 169.999893 -179.999969 -179.771744 179.999939 -179.999985 -179.820404 179.999969 -179.999985 -179.880402 180.000000 -180.000000 -180.000000 159.999496 -179.999893 177.321884 0.000000 -0.000000 0.000000 0.000000 -0.000000 0.000000 164.789108 -175.259766 -163.636337 142.653061 -173.493042 145.575745 8.519575 1.082588 3.822666 160.856964 -145.505127 -107.773590 158.936234 141.932983 -148.580811 179.997940 -179.995377 179.893051 179.998596 -179.996948 179.928772 0.000000 0.000000 -0.000002 165.000015 179.999985 -160.000000 0.000000 0.000002 0.000000 0.000000 0.000002 0.000000 0.000000 0.000000 -0.000002 0.000003 -0.000001 19.999996 0.000000 -0.000000 0.000000 0.000000 -0.000000 0.000000 0.000000 0.000000 -0.000002 9.995015 -0.002137 15.071112 180.000000 180.000000 -180.000000 180.000000 180.000000 -180.000000 0.000000 0.000000 -0.000002 19.995535 -0.001761 -13.372866 179.992844 -179.999023 159.940704 179.995300 179.998947 166.640503
